<?xml version="1.0" encoding="UTF-8"?>
<svg id="Ebene_1" data-name="Ebene 1" xmlns="http://www.w3.org/2000/svg" version="1.1" viewBox="0 0 16 16">
  <defs>
    <style>
      .cls-1 {
        fill: #c1c1c1;
      }

      .cls-1, .cls-2, .cls-3, .cls-4 {
        stroke-width: 0px;
      }

      .cls-2 {
        fill: #003c64;
      }

      .cls-3 {
        fill: #ffdc00;
      }

      .cls-4 {
        fill: red;
      }
    </style>
  </defs>
  <path class="cls-2" d="M12.2,10.6c-.5-.1-1.1-.5-1.6-.9-.1,0-.3-.3-.3-.5,0-.4.2-1.2.3-1.8,0-.3.3-1,.3-1h.1s0,0,.2,0c.2,0,.3-.1.4-.4,0-.2.1-.4.1-.6h-3.8v10.6h8c-.2-4.8-2-5-3.8-5.4Z"/>
  <path class="cls-3" d="M8,5.4h3.8c0-.3,0-.6,0-1.1,0-.1,0-.2-.2-.2s-.2,0-.2.2h-.1c0-.2,0-.4,0-.6C11.6,1.6,10.4.2,8.3,0c0,0-.2,0-.3,0v5.4Z"/>
  <path class="cls-4" d="M8,5.4V0c0,0-.2,0-.3,0-2.2.2-3.3,1.6-3.1,3.8,0,.2,0,.4,0,.6h-.1c0-.1,0-.2-.2-.2s-.2,0-.2.2c0,.5,0,.8,0,1.1h3.8Z"/>
  <path class="cls-1" d="M8,5.4h-3.8c0,.2,0,.4.1.6,0,.3.2.4.4.4s.1,0,.2,0h.1s.3.7.3,1c.1.6.3,1.4.3,1.8,0,.2-.2.4-.3.5-.5.4-1.1.8-1.6.9-1.7.4-3.5.6-3.8,5.4h8V5.4Z"/>
</svg>
